<svg width="110" height="61" viewBox="0 0 110 61" fill="none" xmlns="http://www.w3.org/2000/svg">
<g clip-path="url(#clip0_3848_7889)">
<path d="M32.2478 27.6065V28.8295H33.6971V49.1302C33.6971 49.1302 33.6971 57.6907 31.8855 57.6907C30.0738 57.6907 30.0738 49.1302 30.0738 49.1302V28.8295H31.5231V27.6065H25.9673V28.8295H27.1751V48.641C27.1751 48.641 27.1751 59.1583 31.8033 59.1583C35.6296 59.1583 35.6296 48.641 35.6296 48.641V28.8295H37.0789V27.6065H32.2478Z" fill="#6F5522"/>
<path d="M54.7125 27.6065H52.0554V28.8295H53.7463V57.4461H52.0554V58.6691H54.7125H60.2683V57.4461V56.7124V47.4181H58.5774V56.7124H56.645V44.2385H59.5436V42.0372H56.645V29.5632H58.5774V38.8575H60.2683V29.5632V28.8295V27.6065H54.7125Z" fill="#6F5522"/>
<path d="M76.6942 47.4181C76.6942 47.4181 76.0275 59.1583 80.5881 59.1583C84.6656 59.1583 85.1487 51.8207 85.1487 51.8207V48.8514C85.1487 48.8514 84.7864 45.3195 82.0085 42.0372C79.1098 38.613 78.8683 35.1887 78.8683 33.4766C78.8683 31.7645 79.3514 28.5849 81.0423 28.5849C82.9747 28.5849 82.4916 38.613 82.4916 38.613H84.6656V32.7429C84.6656 32.7429 84.6656 27.1174 81.0423 27.1174C77.4189 27.1174 76.443 32.9532 76.443 35.7831C76.443 38.613 77.902 41.0588 79.8345 43.7493C81.7669 46.4397 82.9747 48.4062 82.7332 51.5761C82.4916 54.7459 81.9988 57.5538 80.7959 57.5538C79.5929 57.5538 79.1098 55.7341 79.1098 47.4181H76.6942Z" fill="#6F5522"/>
<path d="M107.855 27.6065H106.406H103.507H102.058H100.125V29.5632V38.8575H102.058V29.5632H103.507V57.2016H101.816V58.6691H103.507H106.406H108.097V57.2016H106.406V29.5632H107.855V38.8575H109.787V29.5632V27.6065H107.855Z" fill="#6F5522"/>
<path d="M106.183 15.8541C104.712 14.4306 103.133 13.1245 101.473 11.9285C99.217 10.302 96.8183 8.88341 94.3327 7.64824C91.1272 6.05353 87.7769 5.0067 84.3588 3.95987C80.0422 2.64155 75.6145 1.71456 71.1529 1.08353C62.5511 -0.132071 53.9179 -0.313065 45.2677 0.479397C43.5237 0.638378 41.7821 0.838939 40.0453 1.08353C35.5813 1.71456 31.1536 2.64155 26.8394 3.95987C23.4214 5.00426 20.071 6.29568 16.8655 7.89283C14.3799 9.13044 11.9813 10.549 9.72511 12.1731C8.06804 13.3667 6.48584 14.6728 5.01476 16.0987C4.36497 16.7273 1.08705 20.5135 1.81172 21.2473C2.29484 21.7365 3.53644 20.4401 3.98573 20.0243C4.89157 19.1879 5.33845 18.8381 6.32883 18.1092C8.29027 16.6686 10.3483 15.365 12.474 14.1885C14.5587 13.0365 16.7109 12.0068 18.9067 11.0871C21.042 10.1944 23.2209 9.40438 25.4263 8.70975C27.5375 8.04447 29.6777 7.4648 31.8324 6.96095C33.8494 6.49135 35.8833 6.08778 37.9244 5.74536C39.7772 5.43718 41.6371 5.17791 43.5044 4.97001C45.1228 4.78902 46.7461 4.64471 48.3693 4.53954C49.6858 4.45394 51.0023 4.39279 52.3212 4.35855C54.5024 4.30229 56.6982 4.30229 58.8794 4.35855C60.1983 4.39279 61.5148 4.45394 62.8313 4.53954C64.457 4.64716 66.0778 4.78902 67.6963 4.97001C69.5611 5.17791 71.4235 5.43718 73.2762 5.74536C75.3198 6.08533 77.3513 6.4889 79.3683 6.96095C81.523 7.4648 83.6631 8.04447 85.7743 8.70975C87.9798 9.40438 90.1586 10.1944 92.294 11.0871C94.4897 12.0068 96.642 12.7919 98.7266 13.9439C100.852 15.1204 102.91 16.424 104.872 17.8646C105.865 18.5935 106.821 19.3444 107.725 20.1809C108.174 20.5967 109.304 21.7365 109.872 21.2473C110.754 20.4866 106.836 16.4827 106.186 15.8541H106.183Z" fill="#6F5522"/>
<path d="M13.4064 60.1366C11.957 59.892 11.4739 59.1583 8.81681 56.4678C8.64772 56.2966 8.4738 56.1449 8.29988 56.0153C9.22746 53.0998 9.66226 48.7975 9.66226 43.9939C9.66226 35.2132 8.69603 28.0957 4.95191 28.0957C1.6909 28.0957 0 35.2132 0 43.9939C0 52.7745 1.20778 59.892 4.95191 59.892C5.97128 59.892 6.81431 59.1949 7.49067 57.9696C9.2806 58.5737 10.8459 60.0388 11.7155 60.6258C13.1648 61.6041 14.8557 60.3812 13.4064 60.1366ZM5.19346 29.3186C6.83605 29.3186 7.36747 35.9445 7.36747 44.1161C7.36747 48.5774 7.14524 52.574 6.71286 55.2864C5.52681 55.0443 4.40357 55.3916 3.662 55.7291C3.19821 53.0191 3.02187 48.8245 3.02187 44.1137C3.02187 35.9421 3.76345 29.3162 5.19588 29.3162L5.19346 29.3186ZM5.19346 58.9137C4.85045 58.9137 4.55576 58.6226 4.30454 58.0919C4.92051 57.7861 5.54131 57.6785 6.15244 57.7054C5.87707 58.4807 5.55822 58.9137 5.19346 58.9137Z" fill="#6F5522"/>
</g>
<defs>
<clipPath id="clip0_3848_7889">
<rect width="110" height="61" fill="white"/>
</clipPath>
</defs>
</svg>
